<svg xmlns="http://www.w3.org/2000/svg" viewBox="0 0 48 48">
  <rect width="48" height="48" rx="10" fill="#F5F1E9"/>
  <g fill="#FF5E1A">
    <ellipse cx="24" cy="10.5" rx="3.4" ry="9" transform="rotate(0 24 24)"/>
    <ellipse cx="24" cy="10.5" rx="3.4" ry="9" transform="rotate(45 24 24)"/>
    <ellipse cx="24" cy="10.5" rx="3.4" ry="9" transform="rotate(90 24 24)"/>
    <ellipse cx="24" cy="10.5" rx="3.4" ry="9" transform="rotate(135 24 24)"/>
    <ellipse cx="24" cy="10.5" rx="3.4" ry="9" transform="rotate(180 24 24)"/>
    <ellipse cx="24" cy="10.5" rx="3.4" ry="9" transform="rotate(225 24 24)"/>
    <ellipse cx="24" cy="10.5" rx="3.4" ry="9" transform="rotate(270 24 24)"/>
    <ellipse cx="24" cy="10.5" rx="3.4" ry="9" transform="rotate(315 24 24)"/>
  </g>
  <circle cx="24" cy="24" r="6.2" fill="#6B3D0A"/>
</svg>
